<svg id="room" xmlns="http://www.w3.org/2000/svg" viewBox="0 0 1041.2 885.64">
  <g id="room_walls" class="room_walls_down">
    <polygon points="26.11 568.85 26.11 316.79 520.03 31.79 520.03 283.86 26.11 568.85" fill="#e2ddd9"/>
    <polyline points="1012.81 568.85 1013.95 316.79 520.03 31.79 520.03 283.86 1012.81 568.85" fill="#ccc7c4"/>
    <polyline points="26.11 600.65 0 584.75 0 300.89 26.11 316.79 26.11 600.65" fill="#efeeed"/>
    <polyline points="0 300.89 520.03 0 520.03 31.79 26.11 316.79" fill="#ccc7c4"/>
    <polygon points="520.03 0 1041.2 299.76 1013.95 316.79 520.03 31.79 520.03 0" fill="#afaaa8"/>
    <polygon points="1013.95 316.79 1041.2 299.76 1041.2 584.75 1012.81 600.65 1013.95 316.79" fill="#8c8583"/>
  </g>
  <g id="room_floor" class="room_floor_down">
    <polygon points="26.11 568.85 520.6 284.43 1013.38 569.42 520.6 854.42 26.11 568.85" fill="#af7e5d"/>
    <polygon points="26.11 600.65 26.11 568.85 520.03 853.85 520.03 885.64 26.11 600.65" fill="#d39972"/>
    <polygon points="520.03 853.85 520.03 885.64 1012.81 600.65 1012.81 568.85 520.03 853.85" fill="#7f5e47"/>
  </g>
  <g id="room_table" class="room_project_down">
    <polygon points="166.74 380.55 290.85 452.95 572.7 291.34 448.58 218.94 166.74 380.55" fill="#93715a"/>
    <polygon points="166.74 380.55 166.74 398.65 290.85 471.05 290.85 452.95 166.74 380.55" fill="#a08877"/>
    <polygon points="290.85 471.05 290.85 452.95 572.7 291.34 572.7 308.15 290.85 471.05" fill="#6b564a"/>
    <polygon points="166.74 398.65 166.74 489.15 178.37 495.62 182.67 407.94 166.74 398.65" fill="#a08877"/>
    <polygon points="188.2 411.17 186.13 491.74 178.37 495.62 182.25 407.7 188.2 411.17" fill="#6b564a"/>
    <polygon points="290.85 471.05 290.85 561.55 276.63 552.5 276.63 462.75 290.85 471.05" fill="#a08877"/>
    <polygon points="290.85 471.05 301.74 464.76 301.19 555.09 290.85 561.55 290.85 471.05" fill="#6b564a"/>
    <polygon points="572.7 308.15 572.7 398.65 563.64 405.11 563.64 313.38 572.7 308.15" fill="#6b564a"/>
    <polygon points="556.73 317.38 557.18 398.65 563.64 405.11 563.64 313.32 556.73 317.38" fill="#a08877"/>
  </g>
  <g id="room_plant" class="room_contact_down">
    <path d="M705.21,439.84s11.63,11.63,18.1,11.63S744,442.42,744,442.42l3.88-24.56-19.39-11.64-27.15,9Z" transform="translate(-466.07 -59.29)" fill="#beccc8"/>
    <polygon points="235.26 355.99 255.94 370.21 281.8 358.57 262.41 346.94 235.26 355.99" fill="#d6e5e1"/>
    <polygon points="239.14 355.99 255.94 367.62 277.92 358.57 261.11 349.52 239.14 355.99" fill="#59432b"/>
    <path d="M716.84,417.86l-4.79-25.19a5.07,5.07,0,0,1,.83-3.91c1.82-2.56,5.48-6.12,9.14-.64,5.17,7.76,5.17,27.15,5.17,27.15S727.19,425.61,716.84,417.86Z" transform="translate(-466.07 -59.29)" fill="#5f6d35"/>
    <polygon points="253.37 358.49 252.52 357.24 253.22 355.9 251.53 353.41 252.17 350.86 251.11 345.66 251.74 343.04 250.68 337.92 250.54 335.33 249.63 332.8 249.48 330.21 248.64 328.96 250.26 330.17 250.4 332.75 251.32 335.29 251.39 336.58 252.38 340.41 252.59 344.29 251.95 346.91 252.92 350.44 252.31 353.37 254 355.86 253.29 357.19 254.2 359.46 253.37 358.49" fill="#4a512a"/>
    <polygon points="257.64 358.91 256.8 357.66 257.5 356.33 255.81 353.83 256.45 351.29 255.38 346.09 256.02 343.46 254.96 338.34 254.82 335.76 253.9 333.22 253.76 330.64 252.91 329.39 254.53 330.6 254.68 333.18 255.59 335.72 255.66 337.01 256.65 340.84 256.86 344.71 256.23 347.34 257.2 350.86 256.58 353.79 258.27 356.29 257.57 357.62 258.47 359.89 257.64 358.91" fill="#4a512a"/>
    <path d="M730.74,418.82l2.86-15a3,3,0,0,0-.5-2.33c-1.09-1.53-3.27-3.65-5.44-.38-3.09,4.62-3.09,16.17-3.09,16.17S724.57,423.45,730.74,418.82Z" transform="translate(-466.07 -59.29)" fill="#778445"/>
    <polygon points="263.12 359.49 263.62 358.74 263.2 357.95 264.21 356.46 263.83 354.94 264.46 351.85 264.09 350.28 264.72 347.23 264.8 345.69 265.35 344.18 265.43 342.64 265.94 341.9 264.97 342.62 264.88 344.15 264.34 345.67 264.3 346.44 263.71 348.72 263.58 351.03 263.96 352.59 263.38 354.69 263.75 356.44 262.74 357.92 263.16 358.72 262.62 360.07 263.12 359.49" fill="#5f6d35"/>
    <polygon points="260.57 359.74 261.07 359 260.66 358.2 261.66 356.72 261.28 355.2 261.92 352.1 261.54 350.54 262.17 347.49 262.25 345.95 262.8 344.43 262.88 342.9 263.39 342.15 262.42 342.87 262.34 344.41 261.79 345.92 261.75 346.69 261.16 348.97 261.04 351.28 261.41 352.85 260.83 354.95 261.2 356.69 260.19 358.18 260.61 358.97 260.08 360.32 260.57 359.74" fill="#5f6d35"/>
  </g>
  <g id="room_setup" class="room_person_down">
    <polygon points="361.99 292.56 361.99 309.71 346.97 326.21 352.9 328 365.87 312.43 385.3 317.42 388.65 314.44 368.19 308.25 368.19 290.7 361.99 292.56" fill="#2b2b2b"/>
    <polygon points="345.15 348.35 375.7 369.13 376.92 372.79 345.15 350.8 345.15 348.35" fill="#c7c9c0"/>
    <polygon points="345.15 348.35 407.47 321.47 433.14 337.35 375.7 369.13 345.15 348.35" fill="#e1e2de"/>
    <polygon points="376.92 372.79 434.36 339.8 433.14 337.35 375.7 369.13 376.92 372.79" fill="#a2a59a"/>
    <polygon points="424.66 324.03 424.66 320.15 437.59 327.91 437.59 331.79 424.66 324.03" fill="#c7c9c0"/>
    <polygon points="424.66 320.15 433.71 316.27 444.06 324.03 437.59 327.91 424.66 320.15" fill="#e1e2de"/>
    <polygon points="315.32 244.64 314.47 324.03 412.38 277.83 412.38 202.88 315.32 244.64" fill="#3f3d3c"/>
    <polygon points="319.17 316.79 319.17 247.49 408.32 208.31 408.06 274.41 319.17 316.79" fill="#a9d3d1"/>
    <polygon points="315.32 244.64 313.42 243.62 409.49 202.44 412.38 202.88 315.32 244.64" fill="#565454"/>
    <polygon points="314.47 324.03 312.72 323.02 313.42 243.62 315.32 244.64 314.47 324.03" fill="#2b2b2b"/>
  </g>
  <a href="#about" class="room_person_down">
  <g id="room_person">
    <polygon points="390.92 472.04 401.26 466.87 423.24 483.67 415.48 488.84 390.92 472.04" fill="#efd0bf"/>
    <polygon points="437.38 334.68 430 328.36 430 323.09 439.48 330.46 437.38 334.68" fill="#e0bca4"/>
    <polygon points="435.27 319.93 434.74 322.7 431.77 321.47 430 323.09 439.48 330.46 449.78 327.03 439.48 318.52 435.27 319.93" fill="#efd0bf"/>
    <polygon points="436.87 335.21 437.87 328.45 447.66 324.03 462.69 334.59 447.71 343.18 436.87 335.21" fill="#3f3d3c"/>
    <polygon points="429.14 449.78 439.48 444.61 461.46 461.42 453.7 466.59 429.14 449.78" fill="#efd0bf"/>
    <polygon points="453.7 466.59 453.7 471.76 461.46 465.29 461.46 461.42 453.7 466.59" fill="#c4a290"/>
    <polygon points="453.7 471.43 429.14 456.24 429.14 449.78 453.7 466.59 453.7 471.43" fill="#e0bca4"/>
    <polygon points="460.37 402.19 454.18 402.33 433.49 409.54 430.91 416.75 445.13 461.04 454.18 466.19 461.94 462.07 460.37 402.19" fill="#374f49"/>
    <polygon points="421.67 408.51 415.48 408.69 394.8 417.74 392.21 426.79 406.43 482.38 415.48 488.84 423.24 483.67 421.67 408.51" fill="#374f49"/>
    <path d="M923.47,392.3v-12h-9s-9-24-3-31.45,7.48-1.5,7.48-1.5l-1.49,15,7.48-9s10.49,1.5,6,9-1.49,6-1.49,6l13.47,6,3,3,4.49-3,1.5,3,4.49-3-.75,9.39L934,395.3Z" transform="translate(-466.07 -59.29)" fill="#efd0bf"/>
    <polygon points="477.91 334.26 470.48 308.97 490.8 308.97 489.54 324.96 477.91 334.26" fill="#e0bca4"/>
    <path d="M911.49,348.87l-1.5-9,10.48-21v6l15-10.48v6l10.48-6-3,7.49h21l-7.49,9,9,15v12l-9,16.47-4.49,3-1.5-3-4.49,3s-9-6-17.3-9c-.63-.23.83-4.49.83-4.49s6-9-4.5-10.49l-7.48,9L919,348.87S919,341.38,911.49,348.87Z" transform="translate(-466.07 -59.29)" fill="#c66038"/>
    <polygon points="376.18 361.16 367.13 353.4 367.13 346.94 378.76 355.99 376.18 361.16" fill="#e0bca4"/>
    <polygon points="367.13 346.94 373.59 343.06 378.76 344.35 378.76 340.47 381.35 340.47 390.4 352.11 378.76 355.99 367.13 346.94" fill="#efd0bf"/>
    <polygon points="372.03 362.97 375.03 355.48 390.81 348.18 419.26 372.14 425.43 366.32 434.36 351.44 447.9 336.56 456.89 332.07 467.88 336.01 490.34 324.03 490.34 327.02 467.88 345 457.39 373.45 455.89 394.42 454.4 431.86 446.91 434.85 434.93 434.85 416.96 422.87 416.96 415.38 430.44 392.92 415.46 397.41 372.03 362.97" fill="#3f3d3c"/>
    <path d="M866.56,416.26" transform="translate(-466.07 -59.29)" fill="#3f3d3c"/>
    <polygon points="415.48 488.84 415.48 494.01 423.24 487.55 423.24 483.67 415.48 488.84" fill="#c4a290"/>
    <polygon points="415.48 493.68 390.92 478.5 390.92 472.04 415.48 488.84 415.48 493.68" fill="#e0bca4"/>
    <g>
      <path d="M748,257.3l7.54,13.94-4,2.16L738.29,249l10.1-9.89,15.07,27.86-4,2.16-5.39-10Zm0,0,4-2.16-4.68-8.64-3.36,3.31Z" transform="translate(-466.07 -59.29)" fill="#e27c37"/>
      <path d="M765.55,237.48l2.16,4a7.52,7.52,0,0,1,1.08,4.57,7.43,7.43,0,0,1,3.23,3.4l2.15,4q3.24,6-2.74,9.21l-6,3.23L750.37,238l6-3.23Q762.32,231.5,765.55,237.48Zm-1.82,6.14-2.16-4a2,2,0,0,0-3.07-.92l-2,1.08,4.31,8,2-1.08A2,2,0,0,0,763.73,243.62Zm-2.91,4.15,6.46,12,2-1.08a2,2,0,0,0,.91-3.07l-2.15-4a2,2,0,0,0-3.07-.92l-.94.51Z" transform="translate(-466.07 -59.29)" fill="#e27c37"/>
      <path d="M776.17,252.34l-8.62-15.94q-3.24-6,2.74-9.2t9.21,2.74l8.62,15.93q3.23,6-2.75,9.21T776.17,252.34Zm-4.64-18.09,8.62,15.93a2.26,2.26,0,1,0,4-2.15l-8.62-15.94a2.26,2.26,0,1,0-4,2.16Z" transform="translate(-466.07 -59.29)" fill="#e27c37"/>
      <path d="M790.11,244.8l-11.85-21.91,4-2.16,11.85,21.91a2.26,2.26,0,0,0,4-2.15l-11.85-21.91,4-2.16,11.85,21.91q3.23,6-2.75,9.21T790.11,244.8Z" transform="translate(-466.07 -59.29)" fill="#e27c37"/>
      <path d="M804.15,208.88l2.15,4-4,2.16,12.93,23.9-4,2.15-12.92-23.9-4,2.16-2.15-4Z" transform="translate(-466.07 -59.29)" fill="#e27c37"/>
      <path d="M847.12,221.68l-4,2.16L831.54,202.4l-4.61,1L839.15,226l-4,2.16-11.59-21.44-4.61,1,12.22,22.59-4,2.15-15.07-27.86,9.2-2-1.24-2.29,13.81-3Z" transform="translate(-466.07 -59.29)" fill="#e27c37"/>
      <path d="M844,187.33l2.16,4-6,3.23,10.78,19.92,6-3.24,2.16,4-10,5.38L834,192.72Zm8.62,15.94-2,1.07-6.14-1.83,6-3.23Z" transform="translate(-466.07 -59.29)" fill="#e27c37"/>
    </g>
    <g>
      <path d="M747.12,258.58l7.54,13.94-4,2.16-13.22-24.44,10.1-9.89,15.07,27.86-4,2.16-5.39-10Zm0,0,4-2.16-4.68-8.64-3.36,3.31Z" transform="translate(-466.07 -59.29)" fill="#3c3466"/>
      <path d="M764.72,238.76l2.16,4a7.52,7.52,0,0,1,1.08,4.57,7.48,7.48,0,0,1,3.23,3.4l2.15,4q3.23,6-2.74,9.21l-6,3.23-15.08-27.88,6-3.23Q761.5,232.78,764.72,238.76Zm-1.83,6.14-2.15-4a2,2,0,0,0-3.07-.92l-2,1.08,4.31,8,2-1.08A2,2,0,0,0,762.89,244.9Zm-2.9,4.15L766.45,261l2-1.08a2,2,0,0,0,.92-3.07l-2.16-4a2,2,0,0,0-3.07-.92l-.93.51Z" transform="translate(-466.07 -59.29)" fill="#3c3466"/>
      <path d="M775.33,253.62l-8.62-15.94q-3.23-6,2.75-9.2t9.2,2.74l8.62,15.93q3.24,6-2.74,9.21T775.33,253.62Zm-4.63-18.09,8.62,15.93a2.26,2.26,0,1,0,4-2.15l-8.62-15.94a2.26,2.26,0,1,0-4,2.16Z" transform="translate(-466.07 -59.29)" fill="#3c3466"/>
      <path d="M789.27,246.07l-11.85-21.9,4-2.16,11.85,21.91a2.26,2.26,0,0,0,4-2.15l-11.85-21.91,4-2.16,11.85,21.91q3.24,6-2.74,9.21T789.27,246.07Z" transform="translate(-466.07 -59.29)" fill="#3c3466"/>
      <path d="M803.31,210.16l2.16,4-4,2.16,12.92,23.9-4,2.15-12.93-23.9-4,2.16-2.16-4Z" transform="translate(-466.07 -59.29)" fill="#3c3466"/>
      <path d="M846.28,223l-4,2.15-11.59-21.43-4.61,1,12.21,22.59-4,2.15L822.74,208l-4.61,1,12.22,22.59-4,2.15-15.07-27.86,9.21-2-1.24-2.29,13.8-3Z" transform="translate(-466.07 -59.29)" fill="#3c3466"/>
      <path d="M843.15,188.61l2.15,4-6,3.23,10.77,19.91,6-3.23,2.15,4-10,5.38L833.19,194Zm8.62,15.94-2,1.07-6.14-1.83,6-3.23Z" transform="translate(-466.07 -59.29)" fill="#3c3466"/>
    </g>
    <polygon points="337.52 191.21 338.91 193.94 361.58 194.44 359.22 189.83 337.52 191.21" fill="#e27c37"/>
    <polygon points="338.21 191.92 339.61 194.65 361.57 195.51 359.21 190.9 338.21 191.92" fill="#3c3466"/>
    <polygon points="338.12 195.84 355.8 212.56 360.73 197.52 338.12 195.84" fill="#e27c37"/>
    <polygon points="341.64 196.48 357.41 212.36 361.1 198.84 341.64 196.48" fill="#3c3466"/>
    <polygon points="415.48 488.84 409.49 431.87 422.21 434.19 423.24 483.67 415.48 488.84" fill="#2f423d"/>
    <path d="M934.47,553.85,908.38,536s-7.63-1.72.22-7c0,0,3.06-2.44,5.16-1.18s28.37,21.23,28.37,21.23Z" transform="translate(-466.07 -59.29)" fill="#424242"/>
    <polygon points="462.43 461.97 467.86 487.76 471.74 490.35 479.5 487.76 485.96 461.9 462.43 461.97" fill="#424242"/>
    <polygon points="449.3 432.98 458.47 373.46 470.29 342.62 491.13 324.86 533.6 314.85 538.74 316.65 535.09 436.05 483.38 465.78 440.71 458.02 396.75 424.41 401.92 410.19 449.3 432.98" fill="#727149"/>
    <path d="M868,469.47s-1.59,2.76-1.44,4,55.74,29.65,55.74,29.65l15.51-68.52,9.05-27.15,15.52-12.93,42.43-18.55-7.91-6.39L957.59,384.1l-22.36,18.14L923.59,432l-7.76,60.77Z" transform="translate(-466.07 -59.29)" fill="#8c8a60"/>
    <path d="M933.93,547.05,886.1,567.73s-7.76,3.88-5.17,9S886.1,582,886.1,582s9-1.29,9-7.75l38.78-16.81,14.75,39.91s-4.35,12.92,6.74,10.48,6.81-7,2.17-11.36c-5.09-4.74-10.73-40.32-10.73-40.32l36.2-5.18s3.88,6.47,10.35,1.3c0,0,2.58-7.76-6.47-7.76s-41.37,2.59-41.37,2.59l-7.76,2.58Z" transform="translate(-466.07 -59.29)" fill="#424242"/>
  </g>
  </a>
  <g id="room_projects">
  <a href="#projects" class="room_project_down">
    <polygon points="643.28 210.14 643.28 280.87 704.53 316.24 704.53 245.5 643.28 210.14" fill="#93715a" stroke="#93715a" stroke-miterlimit="10"/>
    <path d="M1128.73,388.16" transform="translate(-466.07 -59.29)" fill="none" stroke="#c6b4a8" stroke-miterlimit="10"/>
    <path d="M1128.73,388.16" transform="translate(-466.07 -59.29)" fill="none" stroke="#c6b4a8" stroke-miterlimit="10"/>
    <polygon points="734.53 262.46 734.53 333.19 795.78 368.56 795.78 297.82 734.53 262.46" fill="#93715a" stroke="#93715a" stroke-miterlimit="10"/>
    <polygon points="827.04 316.24 827.04 386.97 888.29 422.34 888.29 351.61 827.04 316.24" fill="#93715a" stroke="#93715a" stroke-miterlimit="10"/>
    <g>
      <path d="M1219.64,264.11l-1.93,3.63q-2.91,5.44-8.23,2.6l-.8-2.76-6.78,12.7-3.55-1.9L1211.91,253l5.32,2.84Q1222.54,258.67,1219.64,264.11Zm-5.48,1.73,1.94-3.62a1.8,1.8,0,0,0-.81-2.76l-1.77-.95-3.88,7.25,1.78.95A1.8,1.8,0,0,0,1214.16,265.84Z" transform="translate(-466.07 -59.29)" fill="#e27c37"/>
      <path d="M1222.06,272.39l-7.75,14.51-3.55-1.89,13.56-25.4,5.32,2.84q5.33,2.85,2.41,8.29l-1.93,3.62q-2,3.81-5.25,3.56l-3.15,12.94-3.67-2Zm0,0,1.77.95a1.8,1.8,0,0,0,2.74-.87l1.94-3.63a1.8,1.8,0,0,0-.81-2.76l-1.77-.94Z" transform="translate(-466.07 -59.29)" fill="#e27c37"/>
      <path d="M1226.08,286.19l7.75-14.51c1.93-3.63,4.68-4.49,8.22-2.6s4.35,4.65,2.42,8.28l-7.75,14.51q-2.91,5.44-8.23,2.61T1226.08,286.19Zm11.29-12.61-7.74,14.51a2,2,0,1,0,3.54,1.89l7.75-14.51a2,2,0,1,0-3.55-1.89Z" transform="translate(-466.07 -59.29)" fill="#e27c37"/>
      <path d="M1238.49,292.82l4.52.08-1,1.81a2,2,0,1,0,3.54,1.9l10.66-20,3.54,1.9-10.65,19.95q-2.91,5.44-8.22,2.6T1238.49,292.82Z" transform="translate(-466.07 -59.29)" fill="#e27c37"/>
      <path d="M1270.42,284.23l-1.94,3.62-5.31-2.84-9.69,18.14,5.32,2.84-1.94,3.63-8.86-4.73,13.56-25.4Zm-7.75,14.51-1.77-.95-1.61-5.52,5.32,2.84Z" transform="translate(-466.07 -59.29)" fill="#e27c37"/>
      <path d="M1279.93,296.29l-5.49,1.74,1.94-3.63a2,2,0,1,0-3.54-1.89L1265.09,307a2,2,0,1,0,3.54,1.89l1.94-3.63,1.61,5.53q-2.91,5.43-8.22,2.6t-2.42-8.28l7.75-14.52q2.91-5.43,8.22-2.6C1281.06,289.9,1281.86,292.67,1279.93,296.29Z" transform="translate(-466.07 -59.29)" fill="#e27c37"/>
      <path d="M1295.24,297.48l-1.93,3.63-3.55-1.9L1278.14,321l-3.55-1.89,11.63-21.77-3.55-1.89,1.94-3.63Z" transform="translate(-466.07 -59.29)" fill="#e27c37"/>
      <path d="M1293.14,305.68q3.88-7.26,12.74-2.52l-1.93,3.63q-5.33-2.85-7.26.78-1,1.81.24,6a10,10,0,0,1-.73,7.77q-3.87,7.24-12.74,2.52l1.94-3.63q5.31,2.85,7.25-.79,1-1.81-.24-5.95A10,10,0,0,1,1293.14,305.68Z" transform="translate(-466.07 -59.29)" fill="#e27c37"/>
    </g>
    <g>
      <path d="M1218.55,264.19l-1.88,3.52q-2.82,5.28-8.1,2.46l-.82-2.7-6.58,12.33-3.52-1.88,13.16-24.65,5.28,2.82Q1221.37,258.91,1218.55,264.19Zm-5.4,1.64,1.88-3.52a1.76,1.76,0,0,0-.82-2.7l-1.76-.94-3.76,7,1.76.94A1.76,1.76,0,0,0,1213.15,265.83Z" transform="translate(-466.07 -59.29)" fill="#3c3466"/>
      <path d="M1221,272.29l-7.52,14.09L1210,284.5l13.16-24.65,5.28,2.82q5.28,2.82,2.47,8.1l-1.88,3.52q-2,3.7-5.16,3.43l-3,12.59-3.64-1.95Zm0,0,1.76.94a1.76,1.76,0,0,0,2.7-.82l1.88-3.52a1.76,1.76,0,0,0-.82-2.7l-1.76-.94Z" transform="translate(-466.07 -59.29)" fill="#3c3466"/>
      <path d="M1225.12,285.8l7.52-14.09q2.82-5.28,8.1-2.46t2.46,8.1l-7.52,14.09q-2.82,5.28-8.1,2.46T1225.12,285.8Zm11-12.21-7.52,14.09a2,2,0,0,0,3.52,1.88l7.52-14.09a2,2,0,0,0-3.52-1.88Z" transform="translate(-466.07 -59.29)" fill="#3c3466"/>
      <path d="M1237.44,292.38l4.46.11-.94,1.77a2,2,0,0,0,3.52,1.88l10.34-19.37,3.52,1.88L1248,298q-2.82,5.28-8.11,2.46T1237.44,292.38Z" transform="translate(-466.07 -59.29)" fill="#3c3466"/>
      <path d="M1268.91,284.29l-1.88,3.52-5.28-2.82-9.4,17.61,5.28,2.82-1.88,3.52-8.8-4.7,13.16-24.65Zm-7.52,14.08-1.76-.94L1258,292l5.28,2.82Z" transform="translate(-466.07 -59.29)" fill="#3c3466"/>
      <path d="M1278.41,296.15l-5.4,1.64,1.88-3.52a2,2,0,0,0-3.52-1.88l-7.52,14.08a2,2,0,1,0,3.52,1.88l1.88-3.52,1.64,5.4q-2.82,5.29-8.1,2.47t-2.46-8.11l7.52-14.08q2.82-5.28,8.1-2.46T1278.41,296.15Z" transform="translate(-466.07 -59.29)" fill="#3c3466"/>
      <path d="M1293.56,297.45l-1.88,3.52-3.52-1.88-11.28,21.13-3.52-1.88,11.28-21.13-3.53-1.88,1.88-3.52Z" transform="translate(-466.07 -59.29)" fill="#3c3466"/>
      <path d="M1291.56,305.43q3.76-7.05,12.56-2.34l-1.88,3.52q-5.28-2.82-7.16.7-.94,1.76.29,5.81a9.54,9.54,0,0,1-.65,7.57q-3.75,7.05-12.56,2.35l1.88-3.52q5.28,2.82,7.16-.71.94-1.76-.29-5.81A9.59,9.59,0,0,1,1291.56,305.43Z" transform="translate(-466.07 -59.29)" fill="#3c3466"/>
    </g>
    <polygon points="759.56 239.77 759.56 242.47 777.15 251.95 777.15 247.39 759.56 239.77" fill="#e27c37"/>
    <polygon points="758.88 240.63 758.88 243.34 775.77 252.82 775.77 248.25 758.88 240.63" fill="#3c3466"/>
    <polygon points="759.43 244.34 766.6 264.56 776.51 254.73 759.43 244.34" fill="#e27c37"/>
    <polygon points="758.88 244.85 765.68 264.04 775.09 254.72 758.88 244.85" fill="#3c3466"/>
    <polygon points="647.58 219.82 647.58 277.64 697.64 306.55 697.64 248.73 647.58 219.82" fill="#474468"/>
    <polygon points="740.12 273.42 740.12 331.24 790.19 360.15 790.19 302.33 740.12 273.42"/>
    <polygon points="832.63 325.92 832.63 383.74 882.7 412.65 882.7 354.83 832.63 325.92" fill="#47413b"/>
    <path d="M1113.65,336.93V321.74s19.13,22.74,20.68,27.13Z" transform="translate(-466.07 -59.29)" fill="#526634"/>
    <path d="M1127.76,345.07s29.85-13.79,36-8.19v29Z" transform="translate(-466.07 -59.29)" fill="#677254"/>
    <polygon points="653.13 244.49 663.46 250.13 663.46 262.46 653.13 257.08 653.13 244.49" fill="#a0927f"/>
    <polygon points="665.84 251.14 676.17 256.78 676.17 269.11 665.84 263.74 665.84 251.14" fill="#a0927f"/>
    <polygon points="678.37 258.05 688.7 263.69 688.7 276.02 678.37 270.65 678.37 258.05" fill="#a0927f"/>
    <polygon points="653.13 258.98 663.46 264.62 663.46 276.95 653.13 271.58 653.13 258.98" fill="#a0927f"/>
    <polygon points="665.18 265.28 675.51 270.92 675.51 283.25 665.18 277.88 665.18 265.28" fill="#a0927f"/>
    <polygon points="678.08 272.42 688.41 278.06 688.41 290.39 678.08 285.02 678.08 272.42" fill="#a0927f"/>
    <g>
      <path d="M1128,294.14s0,0,0,.06.22.2.3.31a.33.33,0,0,1,0,.31,5.92,5.92,0,0,1-.3.62l0,.07c-.14.38-.36.74-.47,1.15a10.25,10.25,0,0,1-.51,1.47.15.15,0,0,0,0,.14l.75.21h0c.2-.1.35,0,.53.1l.08,0c.2.07.19.05.33-.11a5.11,5.11,0,0,0,.31-.67c.4-.67.67-1.41,1-2.12,0-.08.06-.19.1-.28s.06-.14.12-.13.17-.07.27,0,.07.13,0,.2a2.63,2.63,0,0,1-.17.52,1.2,1.2,0,0,0-.09.21c-.09.25-.17.5-.28.74s-.22.47-.3.73c0,0,0,.05,0,.09.29-.57.75-1.68.81-1.81s0,.37,0,.54c-.15.39-.32.77-.45,1.16,0,.08-.18.32-.21.41-.16.37-.34.72-.47,1.1a3.16,3.16,0,0,1-.34.69c0,.06,0,.14,0,.2a3.45,3.45,0,0,1-.35.87l0,.11a3.92,3.92,0,0,1-.25.7c0,.12-.14.24-.2.38a.33.33,0,0,1-.22.17.42.42,0,0,0-.23.16s.07.11,0,.12a.72.72,0,0,1-.34.07h-.25a.38.38,0,0,1,0-.47.18.18,0,0,0,0-.08,5.49,5.49,0,0,1,.37-.9c.09-.17.12-.37.22-.54s.15-.36.22-.55a.33.33,0,0,1,.2-.26l0,0c-.08-.15,0-.24.08-.35s0-.1-.05-.12a1.39,1.39,0,0,0-.28-.12,8.44,8.44,0,0,0-1.06-.45l-.1,0a.51.51,0,0,0-.12.27c-.06.11-.06.23-.16.34s0,.06,0,.09a1,1,0,0,1-.16.34,2.65,2.65,0,0,0-.31.56c-.08.15-.1.26-.19.41a1.2,1.2,0,0,0-.15.3c0,.14-.11.24-.15.38a.08.08,0,0,1-.13.05c-.22-.08-.63-.11-.62-.3s-.05-.05-.12,0-.32-.05-.48-.11a.4.4,0,0,1,0-.24c.13-.29.23-.58.35-.86s.2-.41.29-.6.35-.73.5-1.06c0-.1,0-.11-.06-.19s-.24-.14-.25-.3a1,1,0,0,1,.31,0,.2.2,0,0,0,.26-.16,13.62,13.62,0,0,1,.59-1.36c.31-.67.63-1.33.94-2a.42.42,0,0,0,.08-.21.36.36,0,0,1,.14-.27c.06-.05.09-.06.14-.05A.61.61,0,0,1,1128,294.14Z" transform="translate(-466.07 -59.29)" fill="#fff"/>
      <path d="M1132.2,299.41s-.1,0-.13.11.14.17.24,0,0,0,.08,0a1.35,1.35,0,0,1,.65.62.06.06,0,0,1,0,.06,2,2,0,0,0,.12.59,1.83,1.83,0,0,1-.05.66,3,3,0,0,1-.11.32,5.54,5.54,0,0,0-.22.69,1,1,0,0,1-.33.55.65.65,0,0,0-.18.22,1.15,1.15,0,0,1-.48.54l-.52.37a.67.67,0,0,1-.46.05c-.09-.25.16-.13.22-.21a.21.21,0,0,0-.18-.05,4.28,4.28,0,0,1-.62,0,.43.43,0,0,1-.41-.2,4.33,4.33,0,0,1-.4-.73,1.8,1.8,0,0,1-.08-1,4.45,4.45,0,0,1,.51-1.21,4,4,0,0,1,.72-1,1.43,1.43,0,0,1,1.1-.5,2.81,2.81,0,0,0,.29,0A.23.23,0,0,1,1132.2,299.41Zm-.3.49c-.09.13-.22.22-.32.35a1.15,1.15,0,0,0-.28.4,5.17,5.17,0,0,1-.28.64,1.59,1.59,0,0,0-.22.43,3.73,3.73,0,0,1-.16.35,1.9,1.9,0,0,0-.26,1.19c0,.05,0,.1.06.11s.15.15.14.27a.27.27,0,0,0,.23,0,1.57,1.57,0,0,0,.67-.63q.36-.6.66-1.23l.39-.87a.79.79,0,0,0,0-.67.28.28,0,0,0-.27-.19A.66.66,0,0,1,1131.9,299.9Zm-1.31,4.33a.07.07,0,0,0,.09-.07c0-.05,0-.05-.08-.06a.15.15,0,0,0-.13,0A.34.34,0,0,0,1130.59,304.23Z" transform="translate(-466.07 -59.29)" fill="#fff"/>
      <path d="M1135.71,301.37s.06.07.09.11a.7.7,0,0,1,.22.77.38.38,0,0,0,0,.1l.06,0a2.68,2.68,0,0,0,.29-.62c.05-.16.11-.19.23-.09a1,1,0,0,1,.25.4l0,.09c.09,0,.07-.07.15-.07a.58.58,0,0,1,.12.53l-.22.56c-.18.46-.37.91-.55,1.36a5.7,5.7,0,0,1-.35.8.52.52,0,0,0-.07.27s.1,0,.15,0a5,5,0,0,0,1-.16c.08,0,.09,0,.25.07a1.12,1.12,0,0,1-.61.29l-.41.1-.38.07a.67.67,0,0,0-.22,0c-.09,0-.17.09-.17.2a.75.75,0,0,1-.26.52.46.46,0,0,0-.11.16,2.07,2.07,0,0,1-.59.81,2.76,2.76,0,0,1-1,.62.37.37,0,0,1-.34,0,.9.9,0,0,0-.33,0,4.7,4.7,0,0,1-.65,0c-.24,0-.29-.06-.31-.32a.16.16,0,0,0-.09-.12.51.51,0,0,1-.22-.49,2.41,2.41,0,0,1,.1-.43,1,1,0,0,1,.49-.58,5.12,5.12,0,0,1,1-.47,4.63,4.63,0,0,1,.52-.07,4.71,4.71,0,0,0,.54-.12c.13,0,.29,0,.37-.09a1,1,0,0,0,.14-.35,1,1,0,0,0,.08-.28.36.36,0,0,0-.23.08c-.13.11-.28.15-.41.26a.51.51,0,0,1-.3.07h-.34a.57.57,0,0,1-.38-.28c-.09-.12-.17-.26-.27-.37a.43.43,0,0,1-.08-.27,3.16,3.16,0,0,1,.14-1.18,4.31,4.31,0,0,1,1.28-2,2,2,0,0,1,.54-.36c.11,0,.21-.11.3,0s.09,0,.13,0A.43.43,0,0,1,1135.71,301.37Zm-1.36,4.86a1.66,1.66,0,0,1-.55.06s0,0,0,0l-.14,0a2.9,2.9,0,0,0-.77.19,2.59,2.59,0,0,0-.58.34.52.52,0,0,0-.23.52.64.64,0,0,0,.48.47h.08a2.19,2.19,0,0,0,.3-.16,3.82,3.82,0,0,1,.64-.32,1.49,1.49,0,0,0,.57-.39,4.59,4.59,0,0,0,.4-.73Zm.94-4.46a1.33,1.33,0,0,0-.31.47,3.64,3.64,0,0,1-.33.76,3,3,0,0,0-.25.47.65.65,0,0,1-.29.36.43.43,0,0,0-.21.21.69.69,0,0,0-.1.51l.11-.26a.59.59,0,0,1,.1-.17s.08-.05.12,0,0,.07,0,.11a.66.66,0,0,0-.09.39c0,.23,0,.27.29.23a2.08,2.08,0,0,0,.68-.18.24.24,0,0,0,.17-.17l.41-1c0-.05.06-.12,0-.16s-.05-.2,0-.31a5.75,5.75,0,0,1,0-.93.33.33,0,0,0-.1-.32C1135.42,301.71,1135.37,301.68,1135.29,301.77Z" transform="translate(-466.07 -59.29)" fill="#fff"/>
      <path d="M1142.81,304.23l-.17.21a5.34,5.34,0,0,0-.53.78,6.14,6.14,0,0,1-.78,1c-.24.28-.47.56-.68.86a7.31,7.31,0,0,1-.64.72c-.11.15-.28.24-.41.4s-.08.06-.27.07a1.37,1.37,0,0,1-.26-.56c-.08,0,0,.07-.09.08a.73.73,0,0,1-.17-.59,3.82,3.82,0,0,1,.23-.77c.14-.39.3-.75.45-1.13,0,0,.06-.09,0-.15a.52.52,0,0,0-.23.18c-.37.45-.81.85-1.14,1.34-.15.24-.37.41-.5.65a.26.26,0,0,1-.11.1c-.11-.12-.11-.12-.26-.05s-.18.08-.31-.07a.61.61,0,0,1-.14-.62,6.77,6.77,0,0,1,.22-.77,5.89,5.89,0,0,0,.21-.68,13.23,13.23,0,0,1,.34-1.38c.12-.41.24-.82.33-1.23,0,0,0-.1,0-.13s0,.18,0,.27c.08-.08,0-.2.1-.29.11.12.25,0,.37.07.13-.17.26,0,.38,0a.33.33,0,0,1,.19.44,2.28,2.28,0,0,0-.11.45,3.5,3.5,0,0,1-.17.55c-.12.29-.18.6-.29.88a6.5,6.5,0,0,0-.28.85l-.06.22a.74.74,0,0,0,.25-.2c.21-.24.42-.48.65-.72s.52-.5.76-.79a.59.59,0,0,0,.12-.22,1.9,1.9,0,0,1,.09-.29c.07-.2.21-.26.38-.12a1.75,1.75,0,0,1,.36.36.47.47,0,0,1,.06.15,1.89,1.89,0,0,1-.06,1,11.44,11.44,0,0,1-.59,1.67s-.05.08,0,.12.1-.08.14-.12c.34-.34.62-.71,1-1a3.4,3.4,0,0,0,.23-.3c.19-.28.44-.5.63-.77.07-.09.13-.19.21-.28s0-.2.19-.12l0-.05s0,0,.11,0,.08-.08.13,0A.08.08,0,0,1,1142.81,304.23Z" transform="translate(-466.07 -59.29)" fill="#fff"/>
      <path d="M1145.66,306.09a.64.64,0,0,1-.1.68l0,.06a1.8,1.8,0,0,1-.35.74,2.67,2.67,0,0,0-.09.26,11.23,11.23,0,0,1-.49,1.06c-.06.14-.22.34-.29.47a1.07,1.07,0,0,0-.11.37.49.49,0,0,0,.43,0,5.7,5.7,0,0,0,1.26-.25.69.69,0,0,1-.38.35c-.15.06-.57.16-.73.21a4.45,4.45,0,0,1-.73.12,1.13,1.13,0,0,1-.75-.15c-.1-.05-.11-.17-.13-.26a1.34,1.34,0,0,0-.05-.3.12.12,0,0,0-.13,0s-.09.06-.12.05-.22,0-.39,0-.22-.11-.38-.17-.13,0,0,0-.07.06-.37-.1a1.21,1.21,0,0,1-.45-.45c-.09-.39-.11-.49,0-.74l.17-.41a1.4,1.4,0,0,1,.73-.76,1.49,1.49,0,0,1,1-.14,2.7,2.7,0,0,0,.57.08c.13,0,.18.14.33.15a6.81,6.81,0,0,0,.47-1.07c.08-.16,0-.22-.14-.24a2.35,2.35,0,0,1-.93-.22s-.07,0-.1,0c-.28,0-.31-.22-.47-.31,0-.08,0-.06.07-.05a7.44,7.44,0,0,1,.8.13,3.37,3.37,0,0,0,.71.09,1.26,1.26,0,0,1,.28,0,.58.58,0,0,1,.3.23c.08.1.14.21.27.26s0-.08,0-.15-.09-.13,0-.1A.83.83,0,0,1,1145.66,306.09Zm-4.28,2.48c.06.08,0,.17.08.24s0,.19.17.24a2,2,0,0,1-.11-.53s0-.23-.09-.08S1141.33,308.51,1141.38,308.57Zm2.41-1.2c-.07,0-.09.06-.14,0a.18.18,0,0,0-.14,0c-.14,0-.16.06-.3.09a.58.58,0,0,0-.35.17,1.37,1.37,0,0,0-.52,1.13c.06.16.08.28.24.29h.5c.07,0,.12-.06.15-.13a.79.79,0,0,1,.09-.19,6.25,6.25,0,0,1,.28-.67c.09-.13.11-.27.21-.4a2.25,2.25,0,0,0,.16-.31A.36.36,0,0,0,1143.79,307.37Z" transform="translate(-466.07 -59.29)" fill="#fff"/>
      <path d="M1147.7,307.31a.22.22,0,0,0,0,.08s0,0,0,.05l.54-.13a.92.92,0,0,1,.86.2,1,1,0,0,1,.32.5.17.17,0,0,1-.26,0c-.06-.06-.1-.08-.17-.05s-.2-.05-.3,0l-.09,0a1.17,1.17,0,0,0-.92.28c-.11.1-.14.22-.28.3a.35.35,0,0,0-.19.23c-.08.19-.16.39-.25.58-.18.41-.33.83-.5,1.24l-.24.51a1.65,1.65,0,0,1-.42.38c-.06-.22-.17-.29-.39-.21s-.11-.07-.16-.08,0,.06-.06.08h0a1.1,1.1,0,0,1,.06-.89,12.14,12.14,0,0,0,.55-1.34,2.74,2.74,0,0,1,.28-.57,4.19,4.19,0,0,0,.39-.76c0-.11.13-.21.18-.32a2.52,2.52,0,0,0,.23-.63s0-.09.07-.07,0,.06,0,.1.13-.12.17-.2.21,0,.31,0,.07,0,.09.05C1147.67,306.83,1147.82,307,1147.7,307.31Zm1.49,1h0a.48.48,0,0,0-.43-.16.58.58,0,0,1-.32,0c.07-.07.14-.05.2-.07l.09,0c.07,0,.13,0,.22,0S1149.17,308.06,1149.19,308.27Z" transform="translate(-466.07 -59.29)" fill="#fff"/>
      <path d="M1151.47,306.71c0,.23-.12.49-.18.74a2.72,2.72,0,0,0,.42.16c.08,0,.49.16.24.11,0,0,.37.12.45.16s.43.31.21.3.1.13.13.2c-.21.09-.53-.06-.78-.13-.08,0-.19-.1-.33-.14a1.52,1.52,0,0,1-.36-.12c-.14-.09-.17-.06-.23.09-.17.39-.28.78-.43,1.16a9.23,9.23,0,0,1-.41,1,10,10,0,0,0-.43,1.15c-.09.22-.16.45-.24.68a.57.57,0,0,0,.08.44.1.1,0,0,0,.1.06h.25a3.82,3.82,0,0,1,.84,0c.08,0-.07.25-.28.26a4.35,4.35,0,0,0-.47.15,1.59,1.59,0,0,1-.43.06h-.17a.84.84,0,0,1-.74-.14c-.06,0-.09-.11-.19-.08s0-.05-.06-.09,0-.2,0-.3,0-.11-.07-.12-.05,0-.06-.06a1.55,1.55,0,0,1,0-.74,7.41,7.41,0,0,1,.38-.92c.25-.5.46-1,.72-1.51s.44-.81.66-1.22a.48.48,0,0,0,.08-.23c-.16,0-.54-.2-.51-.26s.32.06.45.11a1.23,1.23,0,0,0-.51-.21c-.21-.1-.27-.14-.16-.38.23.08.62.16.85.25.07,0,.07,0,.1-.06a1.77,1.77,0,0,0,.16-.34,1.86,1.86,0,0,1,.27-.44c.1,0-.07.23,0,.37a.9.9,0,0,0,.26-.45.31.31,0,0,1,.29-.23A1.05,1.05,0,0,1,1151.47,306.71Zm-2.33,5.43s0,.06,0,.09.2.27.13.08,0-.48-.08-.5A2.28,2.28,0,0,0,1149.14,312.14Z" transform="translate(-466.07 -59.29)" fill="#fff"/>
      <path d="M1154.21,309.77s-.36.06-.17.15-.09.07-.27.06h-.12a.52.52,0,0,0-.37,0c-.14.08-.36,0-.4.24a1.32,1.32,0,0,1-.08.19,1.9,1.9,0,0,0,.2.67,2.79,2.79,0,0,1,.28.9,2.52,2.52,0,0,1-.32,1.24,3.17,3.17,0,0,1-.58.46,1.47,1.47,0,0,1-1,.12h-.14a1.22,1.22,0,0,1-.52-.28c-.1-.08-.35-.27-.26-.25s.09.09-.14-.22-.11-.24-.13-.4.08,0,.08-.07-.09-.24,0-.19,0,0,.06,0,.16.26.18.19-.1-.3-.14-.43.12.1.2.19a1.17,1.17,0,0,0,.31.36.47.47,0,0,0,.81,0,1.62,1.62,0,0,0,.22-1,5,5,0,0,0-.31-1,1.08,1.08,0,0,1,.27-1,.68.68,0,0,1,.69-.29.24.24,0,0,0,.14,0,1.1,1.1,0,0,1,.6.09,2.09,2.09,0,0,0,.49.08C1154,309.55,1154.07,309.7,1154.21,309.77Zm-2.16,1.49,0,.39c0,.08.05.19.1.21s.07-.08.07-.13a.94.94,0,0,1-.06-.19l-.1-.45-.11-.25C1151.94,310.8,1152,311.17,1152.05,311.26Z" transform="translate(-466.07 -59.29)" fill="#fff"/>
    </g>
    <circle cx="745.84" cy="326.97" r="0.29" fill="#ddc78c"/>
    <circle cx="750.42" cy="331.26" r="0.29" fill="#ededed"/>
    <circle cx="750.14" cy="327.74" r="0.29" fill="#ededed"/>
    <circle cx="745.55" cy="306.26" r="0.29" fill="#ddc78c"/>
    <circle cx="746.41" cy="317.08" r="0.29" fill="#ededed"/>
    <circle cx="745.26" cy="320.02" r="0.29" fill="#ededed"/>
    <circle cx="778.33" cy="340.19" r="0.29" fill="#ddc78c"/>
    <circle cx="784.3" cy="331.26" r="0.29" fill="#ededed"/>
    <circle cx="782.68" cy="335.82" r="0.29" fill="#ededed"/>
    <circle cx="768.07" cy="336.4" r="0.29" fill="#ddc78c"/>
    <circle cx="748.44" cy="313.75" r="0.29" fill="#ddc78c"/>
    <circle cx="759.03" cy="331.78" r="0.29" fill="#ddc78c"/>
    <circle cx="782.97" cy="320.31" r="0.29" fill="#ddc78c"/>
    <circle cx="784.59" cy="343.09" r="0.29" fill="#ddc78c"/>
    <circle cx="779.57" cy="316.24" r="0.29" fill="#ddc78c"/>
    <circle cx="784.02" cy="310.43" r="0.29" fill="#ededed"/>
    <circle cx="753.27" cy="298.45" r="0.29" fill="#ddc78c"/>
    <circle cx="751.36" cy="303.16" r="0.29" fill="#ededed"/>
    <g>
      <path d="M1225,351.31l-2.88,6-1-.48,3.35-7L1227,351l-.48,1Zm.06,3.72-.5-.24-.52-1.48,1.5.72Z" transform="translate(-466.07 -59.29)" fill="#3c3466"/>
      <path d="M1224.83,356.77l1.92-4a1.66,1.66,0,1,1,3,1.43l-1.92,4a1.66,1.66,0,1,1-3-1.43Zm2.92-3.52-1.92,4a.55.55,0,0,0,1,.48l1.92-4a.55.55,0,1,0-1-.47Z" transform="translate(-466.07 -59.29)" fill="#3c3466"/>
      <path d="M1228.33,358.44l1.92-4a1.66,1.66,0,1,1,3,1.44l-1.92,4a1.66,1.66,0,0,1-3-1.44Zm2.92-3.52-1.92,4a.55.55,0,0,0,1,.48l1.92-4a.55.55,0,1,0-1-.48Z" transform="translate(-466.07 -59.29)" fill="#3c3466"/>
      <path d="M1236.75,357.55l-.48,1a2.2,2.2,0,0,0-1,2l-.48,1a1.46,1.46,0,0,1-2.21.79l-1.5-.72,3.35-7,1.5.72A1.46,1.46,0,0,1,1236.75,357.55Zm-1.48.53.48-1a.48.48,0,0,0-.26-.73l-.5-.24-1,2,.5.24A.49.49,0,0,0,1235.27,358.08Zm-1.24,0-1.43,3,.5.24a.48.48,0,0,0,.73-.26l.48-1a.49.49,0,0,0-.26-.74l-.23-.12Z" transform="translate(-466.07 -59.29)" fill="#3c3466"/>
      <path d="M1237.29,360.27l-1.67,3.5-1-.48,2.93-6.13,3.42.57-3.35,7-1-.48,1.19-2.5Zm0,0,1,.48,1-2.17-1.14-.19Z" transform="translate(-466.07 -59.29)" fill="#3c3466"/>
      <path d="M1241,361.45l-1.91,4-1-.48,3.35-7,1.5.72a1.46,1.46,0,0,1,.78,2.21l-.48,1a1.48,1.48,0,0,1-1.39,1l-.67,3.53-1-.5Zm0,0,.5.24a.49.49,0,0,0,.74-.26l.48-1a.49.49,0,0,0-.26-.74l-.5-.24Z" transform="translate(-466.07 -59.29)" fill="#3c3466"/>
    </g>
    <g>
      <path d="M1224.27,351.4l-2.87,6-1-.48,3.35-7,2.5,1.2-.48,1Zm.06,3.72-.5-.24-.52-1.48,1.5.72Z" transform="translate(-466.07 -59.29)" fill="#7fdadd"/>
      <path d="M1224.12,356.86l1.91-4a1.66,1.66,0,0,1,3,1.43l-1.91,4a1.66,1.66,0,1,1-3-1.44Zm2.91-3.52-1.91,4a.49.49,0,0,0,.26.74.49.49,0,0,0,.74-.26l1.91-4a.55.55,0,1,0-1-.48Z" transform="translate(-466.07 -59.29)" fill="#7fdadd"/>
      <path d="M1227.62,358.54l1.91-4a1.66,1.66,0,1,1,3,1.44l-1.91,4a1.66,1.66,0,0,1-3-1.43Zm2.91-3.53-1.91,4a.55.55,0,0,0,1,.48l1.91-4a.55.55,0,1,0-1-.48Z" transform="translate(-466.07 -59.29)" fill="#7fdadd"/>
      <path d="M1236,357.65l-.48,1a1.82,1.82,0,0,1-.75.87,1.8,1.8,0,0,1-.2,1.13l-.48,1a1.47,1.47,0,0,1-2.22.78l-1.5-.72,3.35-7,1.5.72A1.47,1.47,0,0,1,1236,357.65Zm-1.48.52.48-1a.49.49,0,0,0-.26-.74l-.5-.24-1,2,.5.24A.49.49,0,0,0,1234.55,358.17Zm-1.24,0-1.43,3,.5.24a.49.49,0,0,0,.74-.26l.48-1a.49.49,0,0,0-.26-.74l-.24-.11Z" transform="translate(-466.07 -59.29)" fill="#7fdadd"/>
      <path d="M1236.58,360.36l-1.68,3.5-1-.47,2.94-6.14,3.41.58-3.35,7-1-.48,1.2-2.5Zm0,0,1,.48,1-2.17-1.13-.19Z" transform="translate(-466.07 -59.29)" fill="#7fdadd"/>
      <path d="M1240.32,361.54l-1.92,4-1-.48,3.35-7,1.5.72A1.47,1.47,0,0,1,1243,361l-.48,1a1.46,1.46,0,0,1-1.38,1l-.68,3.53-1-.5Zm0,0,.5.24a.48.48,0,0,0,.73-.26l.48-1a.49.49,0,0,0-.26-.74l-.5-.24Z" transform="translate(-466.07 -59.29)" fill="#7fdadd"/>
    </g>
    <polygon points="745.41 300.91 752.12 304.57 752.12 312.58 745.41 309.09 745.41 300.91" fill="#3c3466"/>
    <polygon points="753.67 305.23 760.38 308.89 760.38 316.9 753.67 313.41 753.67 305.23" fill="#3c3466"/>
    <polygon points="761.8 309.72 768.51 313.38 768.51 321.39 761.8 317.9 761.8 309.72" fill="#3c3466"/>
    <polygon points="770.12 314.3 776.83 317.96 776.83 325.97 770.12 322.49 770.12 314.3" fill="#3c3466"/>
    <polygon points="744.97 299.84 751.68 303.5 751.68 311.51 744.97 308.02 744.97 299.84" fill="#ccc"/>
    <polygon points="753.23 304.16 759.93 307.82 759.93 315.83 753.23 312.34 753.23 304.16" fill="#ccc"/>
    <polygon points="761.36 308.64 768.07 312.31 768.07 320.32 761.36 316.83 761.36 308.64" fill="#ccc"/>
    <polygon points="769.68 313.23 776.38 316.89 776.38 324.9 769.68 321.41 769.68 313.23" fill="#ccc"/>
    <polygon points="777.96 318.44 784.67 322.1 784.67 330.11 777.96 326.62 777.96 318.44" fill="#3c3466"/>
    <polygon points="777.52 317.36 784.23 321.03 784.23 329.04 777.52 325.55 777.52 317.36" fill="#ccc"/>
    <polygon points="745.86 317.36 754.99 322.35 754.99 333.25 745.86 328.5 745.86 317.36" fill="none" stroke="#7fdadd" stroke-miterlimit="10"/>
    <polygon points="759.34 324.12 768.47 329.11 768.47 340.01 759.34 335.26 759.34 324.12" fill="none" stroke="#7fdadd" stroke-miterlimit="10"/>
    <polygon points="773.76 331.75 782.89 336.74 782.89 347.64 773.76 342.89 773.76 331.75" fill="none" stroke="#7fdadd" stroke-miterlimit="10"/>
    <g>
      <path d="M1309.87,420.8a1.2,1.2,0,0,0-.25-1.59l-1.09-1.1c-1.22-1.35-1.54-2.61-.94-3.77a2.83,2.83,0,0,1,1.19-1.23,3.6,3.6,0,0,1,1.84-.39,5.25,5.25,0,0,1,2.09.5,3.62,3.62,0,0,1,2,1.87,3.09,3.09,0,0,1-.1,2.6l-2-.87a1.55,1.55,0,0,0,.16-1.18,1.45,1.45,0,0,0-.86-.84,2.23,2.23,0,0,0-1.32-.21,1.4,1.4,0,0,0-1,.63c-.3.46-.14,1,.48,1.61l.75.74.41.46a3.08,3.08,0,0,1,.66,3.62,3,3,0,0,1-1.22,1.27,3.4,3.4,0,0,1-1.79.38,5.12,5.12,0,0,1-2-.51,4.57,4.57,0,0,1-1.69-1.27,3.13,3.13,0,0,1-.73-1.74,3.35,3.35,0,0,1,.34-1.8l2,.88a1.53,1.53,0,0,0,.87,2.34,2.36,2.36,0,0,0,1.34.21A1.35,1.35,0,0,0,1309.87,420.8Z" transform="translate(-466.07 -59.29)" fill="#cc2619"/>
      <path d="M1319.48,428.17l-1.93-.85.14-7.83-4,6.12-2-.88,6.07-9.16,1.93.84-.14,7.84,4.06-6.12,2,.87Z" transform="translate(-466.07 -59.29)" fill="#cc2619"/>
      <path d="M1329.7,427.52l-3.8-1.67-1.63,2.46,4.47,1.95-1,1.52-6.47-2.83,6.07-9.17,6.45,2.83-1,1.53-4.45-1.95-1.45,2.18,3.82,1.67Z" transform="translate(-466.07 -59.29)" fill="#cc2619"/>
      <path d="M1335.57,432.05a1.2,1.2,0,0,0-.26-1.59l-1.08-1.1q-1.85-2-.94-3.76a2.85,2.85,0,0,1,1.19-1.24,3.58,3.58,0,0,1,1.83-.39,5.47,5.47,0,0,1,2.1.5,3.69,3.69,0,0,1,1.95,1.87,3.13,3.13,0,0,1-.1,2.6l-2-.87a1.55,1.55,0,0,0,.16-1.18,1.46,1.46,0,0,0-.85-.84,2.39,2.39,0,0,0-1.32-.21,1.4,1.4,0,0,0-1,.63q-.46.69.48,1.62l.75.73.41.47a3.07,3.07,0,0,1,.66,3.61,3,3,0,0,1-1.23,1.27,3.4,3.4,0,0,1-1.79.38,5.2,5.2,0,0,1-2-.51,4.66,4.66,0,0,1-1.69-1.26,3.27,3.27,0,0,1-.73-1.75,3.39,3.39,0,0,1,.34-1.79l2,.88a1.51,1.51,0,0,0,.87,2.33,2.27,2.27,0,0,0,1.34.21A1.4,1.4,0,0,0,1335.57,432.05Z" transform="translate(-466.07 -59.29)" fill="#cc2619"/>
    </g>
    <g>
      <path d="M1309.25,420.93a1.2,1.2,0,0,0-.25-1.58l-1.09-1.11q-1.85-2-.94-3.76a2.78,2.78,0,0,1,1.19-1.23,3.5,3.5,0,0,1,1.84-.4,5.46,5.46,0,0,1,2.09.5,3.69,3.69,0,0,1,2,1.87,3.09,3.09,0,0,1-.1,2.6l-2-.87a1.51,1.51,0,0,0,.16-1.18,1.44,1.44,0,0,0-.85-.83,2.23,2.23,0,0,0-1.32-.21,1.42,1.42,0,0,0-1,.62q-.45.69.48,1.62l.75.73.41.47a3.08,3.08,0,0,1,.66,3.62,3,3,0,0,1-1.23,1.27,3.58,3.58,0,0,1-1.79.38,5.57,5.57,0,0,1-2-.51,4.76,4.76,0,0,1-1.68-1.27,3.13,3.13,0,0,1-.73-1.74,3.31,3.31,0,0,1,.34-1.8l2,.88a1.53,1.53,0,0,0,.87,2.34,2.27,2.27,0,0,0,1.34.2A1.32,1.32,0,0,0,1309.25,420.93Z" transform="translate(-466.07 -59.29)" fill="#892710"/>
      <path d="M1318.86,428.3l-1.93-.84.14-7.83-4,6.11-2-.87,6.07-9.17,1.93.85-.14,7.84,4-6.13,2,.87Z" transform="translate(-466.07 -59.29)" fill="#892710"/>
      <path d="M1329.08,427.65l-3.8-1.66-1.63,2.45,4.47,2-1,1.52-6.46-2.84,6.07-9.16,6.45,2.82-1,1.53-4.45-1.95-1.45,2.19,3.82,1.67Z" transform="translate(-466.07 -59.29)" fill="#892710"/>
      <path d="M1335,432.19a1.21,1.21,0,0,0-.26-1.59l-1.08-1.1q-1.84-2-.95-3.77a2.89,2.89,0,0,1,1.19-1.23,3.62,3.62,0,0,1,1.84-.39,5.28,5.28,0,0,1,2.1.49,3.7,3.7,0,0,1,2,1.88,3.16,3.16,0,0,1-.1,2.6l-2-.87a1.55,1.55,0,0,0,.16-1.18,1.45,1.45,0,0,0-.86-.84,2.23,2.23,0,0,0-1.32-.21,1.4,1.4,0,0,0-1,.63c-.3.45-.14,1,.48,1.61l.75.74.42.46a3.08,3.08,0,0,1,.65,3.62,2.89,2.89,0,0,1-1.22,1.27,3.5,3.5,0,0,1-1.79.38,5.47,5.47,0,0,1-2-.51,4.68,4.68,0,0,1-1.69-1.27,3.21,3.21,0,0,1-.73-1.74,3.44,3.44,0,0,1,.34-1.8l2,.88a1.52,1.52,0,0,0,.86,2.34,2.28,2.28,0,0,0,1.34.2A1.35,1.35,0,0,0,1335,432.19Z" transform="translate(-466.07 -59.29)" fill="#892710"/>
    </g>
    </a>
  </g>
   <a href="#contact" class="room_contact_down">
  <g id="room_contact">
 
    <polygon points="520.27 696.11 602.51 743.59 712.16 680.28 629.92 632.79 520.27 696.11" fill="#82756a"/>
    <polygon points="520.27 696.11 520.27 701.96 602.51 750.09 602.51 743.59 520.27 696.11" fill="#68635f"/>
    <polygon points="712.16 680.28 712.16 685.25 602.51 750.09 602.51 743.59 712.16 680.28" fill="#514d4b"/>
    <polygon points="627.79 703.96 608.52 687.87 636.57 652.63 660.28 671.13 627.79 703.96" fill="#e8e8e8"/>
    <polygon points="608.52 687.87 631.19 678.93 636.57 652.63 608.52 687.87" fill="#d8d8d8"/>
    <polygon points="585.48 727.25 582.2 702.36 626.7 695.44 631.62 725.11 585.48 727.25" fill="#d8d8d8"/>
    <polygon points="582.2 702.36 604.93 711.14 626.7 695.44 582.2 702.36" fill="#f9f9f9"/>
    <polygon points="578.74 692.64 567.26 674.25 599.78 652.9 614.25 674.47 578.74 692.64" fill="#9de0cb"/>
    <path d="M1053.67,737.43l1.63-.1a4.53,4.53,0,0,0,3.67-2.27l.9-1.56a4.54,4.54,0,0,0-6.43-6l-2.52,1.66A4.54,4.54,0,0,0,1053.67,737.43Z" transform="translate(-466.07 -59.29)" fill="#ff9a15"/>
    <polygon points="542.31 732.97 523.03 716.88 551.08 681.64 574.8 700.14 542.31 732.97" fill="#e8e8e8"/>
    <polygon points="523.03 716.88 545.7 707.94 551.08 681.64 523.03 716.88" fill="#d8d8d8"/>
    <g>
      <path d="M936,701.34l-1.33,6-2.36-3.69a2.19,2.19,0,1,0-3.69,2.36L938,720.82a2.19,2.19,0,1,0,3.69-2.35l-2.35-3.7,6,1.34q3.52,5.53-2,9.07t-9.08-2l-9.43-14.76q-3.54-5.53,2-9.08T936,701.34Z" transform="translate(-466.07 -59.29)" fill="#e27c37"/>
      <path d="M947.23,714.93l-9.43-14.77q-3.54-5.53,2-9.07t9.07,2l9.43,14.77q3.54,5.53-2,9.07T947.23,714.93Zm-5.74-17.12,9.43,14.76a2.19,2.19,0,1,0,3.69-2.36l-9.43-14.76a2.19,2.19,0,1,0-3.69,2.36Z" transform="translate(-466.07 -59.29)" fill="#e27c37"/>
      <path d="M974.76,705.14l-3.69,2.36-12.69-19.86L954,688.93l13.37,20.93-3.69,2.35-16.5-25.82,8.74-2.59-1.37-2.14,3.69-2.36Z" transform="translate(-466.07 -59.29)" fill="#e27c37"/>
      <path d="M971.17,671.05l2.36,3.69-3.69,2.36L984,699.25l-3.69,2.35-14.15-22.14-3.69,2.35-2.36-3.69Z" transform="translate(-466.07 -59.29)" fill="#e27c37"/>
      <path d="M985,680.43l8.25,12.92-3.69,2.36-14.46-22.65,9-10.24,16.5,25.82L996.91,691l-5.9-9.22Zm0,0,3.69-2.36-5.11-8-3,3.42Z" transform="translate(-466.07 -59.29)" fill="#e27c37"/>
      <path d="M1000.55,660.08l-1.34,6-2.35-3.69a2.19,2.19,0,1,0-3.7,2.36l9.44,14.76a2.19,2.19,0,1,0,3.69-2.36l-2.36-3.69,6.05,1.34q3.54,5.53-2,9.07t-9.08-2l-9.43-14.76q-3.53-5.53,2-9.08T1000.55,660.08Z" transform="translate(-466.07 -59.29)" fill="#e27c37"/>
      <path d="M1009.93,646.29l2.36,3.69-3.69,2.36,14.14,22.15-3.69,2.36-14.14-22.15-3.7,2.36-2.35-3.69Z" transform="translate(-466.07 -59.29)" fill="#e27c37"/>
      <path d="M1052.27,655.63l-3.69,2.35-12.69-19.85-4.37,1.28,13.37,20.93-3.69,2.36-12.69-19.86-4.37,1.29,13.37,20.93-3.69,2.36-16.5-25.82,8.74-2.6-1.35-2.12,13.1-3.9Z" transform="translate(-466.07 -59.29)" fill="#e27c37"/>
      <path d="M1046.84,622.72l2.36,3.69-5.54,3.53,11.79,18.46,5.54-3.54,2.35,3.69-9.22,5.9-16.51-25.84Zm9.43,14.76-1.85,1.18-6-1.33,5.53-3.54Z" transform="translate(-466.07 -59.29)" fill="#e27c37"/>
    </g>
    <g>
      <path d="M934,700.85l-1.33,6-2.36-3.69a2.19,2.19,0,0,0-3.69,2.35L936,720.33A2.19,2.19,0,1,0,939.7,718l-2.35-3.69,6,1.33q3.52,5.53-2,9.08t-9.08-2l-9.43-14.77q-3.54-5.53,2-9.07T934,700.85Z" transform="translate(-466.07 -59.29)" fill="#3c3466"/>
      <path d="M945.24,714.43l-9.43-14.76q-3.54-5.53,2-9.07t9.07,2l9.43,14.76q3.54,5.53-2,9.07T945.24,714.43Zm-5.74-17.12,9.43,14.77a2.19,2.19,0,0,0,3.69-2.36L943.19,695a2.19,2.19,0,0,0-3.69,2.36Z" transform="translate(-466.07 -59.29)" fill="#3c3466"/>
      <path d="M972.77,704.65,969.08,707l-12.69-19.85L952,688.43l13.37,20.93-3.69,2.36L945.2,685.9l8.74-2.59-1.37-2.14,3.69-2.36Z" transform="translate(-466.07 -59.29)" fill="#3c3466"/>
      <path d="M969.18,670.56l2.36,3.69-3.69,2.36L982,698.75l-3.69,2.36L964.16,679l-3.69,2.36-2.36-3.69Z" transform="translate(-466.07 -59.29)" fill="#3c3466"/>
      <path d="M983,679.94l8.25,12.92-3.69,2.35-14.46-22.64,9-10.25,16.5,25.82-3.7,2.36L989,681.27Zm0,0,3.69-2.36-5.11-8-3,3.43Z" transform="translate(-466.07 -59.29)" fill="#3c3466"/>
      <path d="M998.56,659.59l-1.34,6L994.87,662a2.19,2.19,0,0,0-3.7,2.35l9.44,14.77a2.19,2.19,0,0,0,3.69-2.36l-2.36-3.69,6,1.33q3.54,5.53-2,9.08t-9.08-2l-9.43-14.77q-3.53-5.53,2-9.07T998.56,659.59Z" transform="translate(-466.07 -59.29)" fill="#3c3466"/>
      <path d="M1007.94,645.8l2.36,3.69-3.69,2.36L1020.75,674l-3.69,2.36-14.15-22.14-3.69,2.35-2.35-3.69Z" transform="translate(-466.07 -59.29)" fill="#3c3466"/>
      <path d="M1050.28,655.13l-3.69,2.36-12.69-19.86-4.37,1.29,13.37,20.93-3.69,2.36-12.69-19.86-4.37,1.29,13.37,20.92-3.69,2.36-16.5-25.82,8.74-2.59-1.36-2.12,13.11-3.9Z" transform="translate(-466.07 -59.29)" fill="#3c3466"/>
      <path d="M1044.85,622.22l2.36,3.69-5.54,3.54,11.79,18.45,5.54-3.53,2.35,3.69-9.22,5.89-16.51-25.83Zm9.43,14.77-1.85,1.18-6-1.34,5.53-3.53Z" transform="translate(-466.07 -59.29)" fill="#3c3466"/>
    </g>
    <polygon points="542.47 643.34 545.07 644.97 564.79 633.79 560.41 631.04 542.47 643.34" fill="#e27c37"/>
    <polygon points="542.68 641.87 545.28 643.5 564.58 633 560.2 630.25 542.68 641.87" fill="#3c3466"/>
    <polygon points="545.36 647.01 569.11 652.32 565.64 636.87 545.36 647.01" fill="#e27c37"/>
    <polygon points="546.89 645.76 569.11 650.48 566.09 635.8 546.89 645.76" fill="#3c3466"/>
  </g>
  </a>
</svg>
